<!-- Generated by IcoMoon.io -->
<svg version="1.1" xmlns="http://www.w3.org/2000/svg" width="1024" height="1024" viewBox="0 0 1024 1024">
<title></title>
<g id="icomoon-ignore">
</g>
<path d="M85.35 384.017c0-63.803 0-95.705 13.719-119.467 8.988-15.567 21.914-28.493 37.481-37.481 23.762-13.719 55.664-13.719 119.467-13.719h511.998c63.805 0 95.708 0 119.47 13.719 15.565 8.988 28.493 21.914 37.478 37.481 13.722 23.762 13.722 55.664 13.722 119.467 0 15.95 0 23.926-3.43 29.866-2.248 3.892-5.478 7.123-9.37 9.37-5.944 3.43-13.916 3.43-29.87 3.43h-767.999c-15.95 0-23.926 0-29.866-3.43-3.892-2.247-7.123-5.478-9.37-9.37-3.43-5.941-3.43-13.916-3.43-29.866zM115.342 908.672c-29.992-29.988-29.992-78.259-29.992-174.807v-170.665c0-24.136 0-36.204 7.498-43.704 7.498-7.496 19.566-7.496 43.702-7.496h750.936c24.136 0 36.204 0 43.699 7.496 7.501 7.501 7.501 19.569 7.501 43.704v170.665c0 96.548 0 144.819-29.993 174.807-29.993 29.993-78.264 29.993-174.807 29.993h-443.736c-96.544 0-144.815 0-174.808-29.993zM341.35 674.135c-28.277 0-51.2 22.922-51.2 51.2s22.923 51.2 51.2 51.2h341.336c28.273 0 51.2-22.922 51.2-51.2s-22.927-51.2-51.2-51.2h-341.336z"></path>
</svg>
